<svg width="48" height="48" viewBox="0 0 48 48" fill="none" xmlns="http://www.w3.org/2000/svg">
<g clip-path="url(#clip0_4933_6004)">
<g clip-path="url(#clip1_4933_6004)">
<path d="M10.5 0.0429687C5.529 0.0429687 1.5 4.74396 1.5 10.5429C1.5 15.5079 4.455 19.6689 8.424 20.7609L6.933 45.0489C6.90517 45.4342 6.9576 45.8212 7.08697 46.1852C7.21633 46.5493 7.41983 46.8826 7.68458 47.164C7.94934 47.4453 8.2696 47.6687 8.62511 47.82C8.98063 47.9713 9.36366 48.0472 9.75 48.0429H11.25C12.9 48.0429 14.166 46.6959 14.067 45.0489L12.576 20.7609C16.545 19.6659 19.5 15.5079 19.5 10.5429C19.5 4.74396 15.471 0.0429687 10.5 0.0429687ZM35.949 0.0429687L33.45 15.0429H31.575L30.324 0.0429687L29.073 0.0429687L27.822 15.0429H25.947L23.448 0.0429687L22.197 0.0429687V19.5429C22.197 19.9408 22.355 20.3223 22.6363 20.6036C22.9176 20.8849 23.2992 21.0429 23.697 21.0429H27.603L26.13 45.0489C26.1022 45.4342 26.1546 45.8212 26.284 46.1852C26.4133 46.5493 26.6168 46.8826 26.8816 47.164C27.1463 47.4453 27.4666 47.6687 27.8221 47.82C28.1776 47.9713 28.5607 48.0472 28.947 48.0429H30.447C32.097 48.0429 33.363 46.6959 33.264 45.0489L31.791 21.0429L35.697 21.0429C36.0948 21.0429 36.4764 20.8849 36.7577 20.6036C37.039 20.3223 37.197 19.9408 37.197 19.5429V0.0429687L35.946 0.0429687H35.949Z" fill="#2E5834"/>
</g>
</g>
<defs>
<clipPath id="clip0_4933_6004">
<rect width="48" height="48" fill="white"/>
</clipPath>
<clipPath id="clip1_4933_6004">
<rect width="39.36" height="48" fill="white" transform="translate(0 0.0429688)"/>
</clipPath>
</defs>
</svg>
