<svg width="151" height="90" viewBox="0 0 151 90" fill="none" xmlns="http://www.w3.org/2000/svg">
<g clip-path="url(#clip0_333_3622)">
<path d="M10.5 21.043C5.529 21.043 1.5 25.744 1.5 31.5429C1.5 36.5079 4.455 40.6689 8.424 41.7609L6.933 66.0489C6.90517 66.4342 6.9576 66.8212 7.08697 67.1852C7.21633 67.5493 7.41983 67.8826 7.68458 68.164C7.94934 68.4453 8.2696 68.6687 8.62511 68.82C8.98063 68.9713 9.36366 69.0472 9.75 69.0429H11.25C12.9 69.0429 14.166 67.6959 14.067 66.0489L12.576 41.7609C16.545 40.6659 19.5 36.5079 19.5 31.5429C19.5 25.744 15.471 21.043 10.5 21.043ZM35.949 21.043L33.45 36.0429H31.575L30.324 21.043H29.073L27.822 36.0429H25.947L23.448 21.043H22.197V40.5429C22.197 40.9408 22.355 41.3223 22.6363 41.6036C22.9176 41.8849 23.2992 42.0429 23.697 42.0429H27.603L26.13 66.0489C26.1022 66.4342 26.1546 66.8212 26.284 67.1852C26.4133 67.5493 26.6168 67.8826 26.8816 68.164C27.1463 68.4453 27.4666 68.6687 27.8221 68.82C28.1776 68.9713 28.5607 69.0472 28.947 69.0429H30.447C32.097 69.0429 33.363 67.6959 33.264 66.0489L31.791 42.0429H35.697C36.0948 42.0429 36.4764 41.8849 36.7577 41.6036C37.039 41.3223 37.197 40.9408 37.197 40.5429V21.043H35.946H35.949Z" fill="#2E5834"/>
</g>
<path d="M46.6844 40V20.4H55.1684C56.923 20.4 58.435 20.6893 59.7044 21.268C60.9737 21.828 61.9537 22.64 62.6444 23.704C63.335 24.768 63.6804 26.0373 63.6804 27.512C63.6804 28.968 63.335 30.228 62.6444 31.292C61.9537 32.3373 60.9737 33.14 59.7044 33.7C58.435 34.26 56.923 34.54 55.1684 34.54H49.2044L51.2204 32.552V40H46.6844ZM59.1444 40L54.2444 32.888H59.0884L64.0444 40H59.1444ZM51.2204 33.056L49.2044 30.928H54.9164C56.3164 30.928 57.3617 30.6293 58.0524 30.032C58.743 29.416 59.0884 28.576 59.0884 27.512C59.0884 26.4293 58.743 25.5893 58.0524 24.992C57.3617 24.3947 56.3164 24.096 54.9164 24.096H49.2044L51.2204 21.94V33.056ZM74.4422 40.224C72.7249 40.224 71.2129 39.888 69.9062 39.216C68.6182 38.544 67.6195 37.6293 66.9102 36.472C66.2009 35.296 65.8462 33.9613 65.8462 32.468C65.8462 30.956 66.1915 29.6213 66.8822 28.464C67.5915 27.288 68.5529 26.3733 69.7662 25.72C70.9795 25.048 72.3515 24.712 73.8822 24.712C75.3569 24.712 76.6822 25.0293 77.8582 25.664C79.0529 26.28 79.9955 27.176 80.6862 28.352C81.3769 29.5093 81.7222 30.9 81.7222 32.524C81.7222 32.692 81.7129 32.888 81.6942 33.112C81.6755 33.3173 81.6569 33.5133 81.6382 33.7H69.4022V31.152H79.3422L77.6622 31.908C77.6622 31.124 77.5035 30.4427 77.1862 29.864C76.8689 29.2853 76.4302 28.8373 75.8702 28.52C75.3102 28.184 74.6569 28.016 73.9102 28.016C73.1635 28.016 72.5009 28.184 71.9222 28.52C71.3622 28.8373 70.9235 29.2947 70.6062 29.892C70.2889 30.4707 70.1302 31.1613 70.1302 31.964V32.636C70.1302 33.4573 70.3075 34.1853 70.6622 34.82C71.0355 35.436 71.5489 35.912 72.2022 36.248C72.8742 36.5653 73.6582 36.724 74.5542 36.724C75.3569 36.724 76.0569 36.6027 76.6542 36.36C77.2702 36.1173 77.8302 35.7533 78.3342 35.268L80.6582 37.788C79.9675 38.572 79.0995 39.1787 78.0542 39.608C77.0089 40.0187 75.8049 40.224 74.4422 40.224ZM91.9103 40.224C90.2863 40.224 88.8396 39.8973 87.5703 39.244C86.3009 38.572 85.3023 37.648 84.5743 36.472C83.8649 35.296 83.5103 33.9613 83.5103 32.468C83.5103 30.956 83.8649 29.6213 84.5743 28.464C85.3023 27.288 86.3009 26.3733 87.5703 25.72C88.8396 25.048 90.2863 24.712 91.9103 24.712C93.4969 24.712 94.8783 25.048 96.0543 25.72C97.2303 26.3733 98.0983 27.316 98.6583 28.548L95.2703 30.368C94.8783 29.6587 94.3836 29.136 93.7863 28.8C93.2076 28.464 92.5729 28.296 91.8823 28.296C91.1356 28.296 90.4636 28.464 89.8663 28.8C89.2689 29.136 88.7929 29.612 88.4383 30.228C88.1023 30.844 87.9343 31.5907 87.9343 32.468C87.9343 33.3453 88.1023 34.092 88.4383 34.708C88.7929 35.324 89.2689 35.8 89.8663 36.136C90.4636 36.472 91.1356 36.64 91.8823 36.64C92.5729 36.64 93.2076 36.4813 93.7863 36.164C94.3836 35.828 94.8783 35.296 95.2703 34.568L98.6583 36.416C98.0983 37.6293 97.2303 38.572 96.0543 39.244C94.8783 39.8973 93.4969 40.224 91.9103 40.224ZM101.091 40V24.936H105.459V40H101.091ZM103.275 22.836C102.473 22.836 101.819 22.6027 101.315 22.136C100.811 21.6693 100.559 21.0907 100.559 20.4C100.559 19.7093 100.811 19.1307 101.315 18.664C101.819 18.1973 102.473 17.964 103.275 17.964C104.078 17.964 104.731 18.188 105.235 18.636C105.739 19.0653 105.991 19.6253 105.991 20.316C105.991 21.044 105.739 21.6507 105.235 22.136C104.75 22.6027 104.097 22.836 103.275 22.836ZM118.417 40.224C117.148 40.224 116.037 39.944 115.085 39.384C114.133 38.824 113.386 37.9747 112.845 36.836C112.322 35.6787 112.061 34.2227 112.061 32.468C112.061 30.6947 112.313 29.2387 112.817 28.1C113.321 26.9613 114.049 26.112 115.001 25.552C115.953 24.992 117.092 24.712 118.417 24.712C119.836 24.712 121.105 25.0387 122.225 25.692C123.364 26.3267 124.26 27.2227 124.913 28.38C125.585 29.5373 125.921 30.9 125.921 32.468C125.921 34.0547 125.585 35.4267 124.913 36.584C124.26 37.7413 123.364 38.6373 122.225 39.272C121.105 39.9067 119.836 40.224 118.417 40.224ZM109.513 45.432V24.936H113.685V28.016L113.601 32.496L113.881 36.948V45.432H109.513ZM117.661 36.64C118.389 36.64 119.033 36.472 119.593 36.136C120.172 35.8 120.629 35.324 120.965 34.708C121.32 34.0733 121.497 33.3267 121.497 32.468C121.497 31.5907 121.32 30.844 120.965 30.228C120.629 29.612 120.172 29.136 119.593 28.8C119.033 28.464 118.389 28.296 117.661 28.296C116.933 28.296 116.28 28.464 115.701 28.8C115.122 29.136 114.665 29.612 114.329 30.228C113.993 30.844 113.825 31.5907 113.825 32.468C113.825 33.3267 113.993 34.0733 114.329 34.708C114.665 35.324 115.122 35.8 115.701 36.136C116.28 36.472 116.933 36.64 117.661 36.64ZM136.321 40.224C134.604 40.224 133.092 39.888 131.785 39.216C130.497 38.544 129.498 37.6293 128.789 36.472C128.08 35.296 127.725 33.9613 127.725 32.468C127.725 30.956 128.07 29.6213 128.761 28.464C129.47 27.288 130.432 26.3733 131.645 25.72C132.858 25.048 134.23 24.712 135.761 24.712C137.236 24.712 138.561 25.0293 139.737 25.664C140.932 26.28 141.874 27.176 142.565 28.352C143.256 29.5093 143.601 30.9 143.601 32.524C143.601 32.692 143.592 32.888 143.573 33.112C143.554 33.3173 143.536 33.5133 143.517 33.7H131.281V31.152H141.221L139.541 31.908C139.541 31.124 139.382 30.4427 139.065 29.864C138.748 29.2853 138.309 28.8373 137.749 28.52C137.189 28.184 136.536 28.016 135.789 28.016C135.042 28.016 134.38 28.184 133.801 28.52C133.241 28.8373 132.802 29.2947 132.485 29.892C132.168 30.4707 132.009 31.1613 132.009 31.964V32.636C132.009 33.4573 132.186 34.1853 132.541 34.82C132.914 35.436 133.428 35.912 134.081 36.248C134.753 36.5653 135.537 36.724 136.433 36.724C137.236 36.724 137.936 36.6027 138.533 36.36C139.149 36.1173 139.709 35.7533 140.213 35.268L142.537 37.788C141.846 38.572 140.978 39.1787 139.933 39.608C138.888 40.0187 137.684 40.224 136.321 40.224ZM56.0644 70.336C54.5524 70.336 53.143 70.0933 51.8364 69.608C50.5484 69.104 49.4284 68.3947 48.4764 67.48C47.5244 66.5653 46.7777 65.492 46.2364 64.26C45.7137 63.028 45.4524 61.6747 45.4524 60.2C45.4524 58.7253 45.7137 57.372 46.2364 56.14C46.7777 54.908 47.5244 53.8347 48.4764 52.92C49.447 52.0053 50.5764 51.3053 51.8644 50.82C53.1524 50.316 54.5617 50.064 56.0924 50.064C57.791 50.064 59.3217 50.3627 60.6844 50.96C62.0657 51.5387 63.223 52.3973 64.1564 53.536L61.2444 56.224C60.5724 55.4587 59.8257 54.8893 59.0044 54.516C58.183 54.124 57.287 53.928 56.3164 53.928C55.4017 53.928 54.5617 54.0773 53.7964 54.376C53.031 54.6747 52.3684 55.104 51.8084 55.664C51.2484 56.224 50.8097 56.8867 50.4924 57.652C50.1937 58.4173 50.0444 59.2667 50.0444 60.2C50.0444 61.1333 50.1937 61.9827 50.4924 62.748C50.8097 63.5133 51.2484 64.176 51.8084 64.736C52.3684 65.296 53.031 65.7253 53.7964 66.024C54.5617 66.3227 55.4017 66.472 56.3164 66.472C57.287 66.472 58.183 66.2853 59.0044 65.912C59.8257 65.52 60.5724 64.932 61.2444 64.148L64.1564 66.836C63.223 67.9747 62.0657 68.8427 60.6844 69.44C59.3217 70.0373 57.7817 70.336 56.0644 70.336ZM66.9115 70V54.936H71.0835V59.192L70.4955 57.96C70.9435 56.896 71.6622 56.0933 72.6515 55.552C73.6408 54.992 74.8448 54.712 76.2635 54.712V58.744C76.0768 58.7253 75.9088 58.716 75.7595 58.716C75.6102 58.6973 75.4515 58.688 75.2835 58.688C74.0888 58.688 73.1182 59.0333 72.3715 59.724C71.6435 60.396 71.2795 61.4507 71.2795 62.888V70H66.9115ZM87.1164 70V67.06L86.8364 66.416V61.152C86.8364 60.2187 86.547 59.4907 85.9684 58.968C85.4084 58.4453 84.5404 58.184 83.3644 58.184C82.5617 58.184 81.7684 58.3147 80.9844 58.576C80.219 58.8187 79.5657 59.1547 79.0244 59.584L77.4564 56.532C78.2777 55.9533 79.267 55.5053 80.4244 55.188C81.5817 54.8707 82.7577 54.712 83.9524 54.712C86.2484 54.712 88.031 55.2533 89.3004 56.336C90.5697 57.4187 91.2044 59.108 91.2044 61.404V70H87.1164ZM82.5244 70.224C81.3484 70.224 80.3404 70.028 79.5004 69.636C78.6604 69.2253 78.0164 68.6747 77.5684 67.984C77.1204 67.2933 76.8964 66.5187 76.8964 65.66C76.8964 64.764 77.111 63.98 77.5404 63.308C77.9884 62.636 78.6884 62.1133 79.6404 61.74C80.5924 61.348 81.8337 61.152 83.3644 61.152H87.3684V63.7H83.8404C82.8137 63.7 82.1044 63.868 81.7124 64.204C81.339 64.54 81.1524 64.96 81.1524 65.464C81.1524 66.024 81.367 66.472 81.7964 66.808C82.2444 67.1253 82.851 67.284 83.6164 67.284C84.3444 67.284 84.9977 67.116 85.5764 66.78C86.155 66.4253 86.575 65.912 86.8364 65.24L87.5084 67.256C87.191 68.2267 86.6124 68.964 85.7724 69.468C84.9324 69.972 83.8497 70.224 82.5244 70.224ZM95.6896 70V54.6C95.6896 52.9013 96.1936 51.548 97.2016 50.54C98.2096 49.5133 99.6469 49 101.514 49C102.148 49 102.755 49.0653 103.334 49.196C103.931 49.3267 104.435 49.532 104.846 49.812L103.698 52.976C103.455 52.808 103.184 52.6773 102.886 52.584C102.587 52.4907 102.27 52.444 101.934 52.444C101.299 52.444 100.804 52.6307 100.45 53.004C100.114 53.3587 99.9456 53.9 99.9456 54.628V56.028L100.058 57.904V70H95.6896ZM93.3656 58.632V55.272H103.81V58.632H93.3656ZM112.146 70.224C110.372 70.224 108.991 69.776 108.002 68.88C107.012 67.9653 106.518 66.612 106.518 64.82V51.604H110.886V64.764C110.886 65.3987 111.054 65.8933 111.39 66.248C111.726 66.584 112.183 66.752 112.762 66.752C113.452 66.752 114.04 66.5653 114.526 66.192L115.702 69.272C115.254 69.5893 114.712 69.832 114.078 70C113.462 70.1493 112.818 70.224 112.146 70.224ZM104.194 58.632V55.272H114.638V58.632H104.194Z" fill="#2E5834"/>
<defs>
<clipPath id="clip0_333_3622">
<rect width="39.36" height="48" fill="white" transform="translate(0 21.043)"/>
</clipPath>
</defs>
</svg>
